<svg width="25" height="25" viewBox="0 0 25 25" fill="none" xmlns="http://www.w3.org/2000/svg">
<path d="M21.2806 13.0306L14.5306 19.7806C14.3899 19.9213 14.199 20.0003 14 20.0003C13.801 20.0003 13.6101 19.9213 13.4694 19.7806C13.3286 19.6398 13.2496 19.449 13.2496 19.2499C13.2496 19.0509 13.3286 18.86 13.4694 18.7193L18.9397 13.2499H4.25C4.05109 13.2499 3.86032 13.1709 3.71967 13.0303C3.57902 12.8896 3.5 12.6988 3.5 12.4999C3.5 12.301 3.57902 12.1103 3.71967 11.9696C3.86032 11.8289 4.05109 11.7499 4.25 11.7499H18.9397L13.4694 6.28055C13.3286 6.13982 13.2496 5.94895 13.2496 5.74993C13.2496 5.55091 13.3286 5.36003 13.4694 5.2193C13.6101 5.07857 13.801 4.99951 14 4.99951C14.199 4.99951 14.3899 5.07857 14.5306 5.2193L21.2806 11.9693C21.3504 12.039 21.4057 12.1217 21.4434 12.2127C21.4812 12.3038 21.5006 12.4014 21.5006 12.4999C21.5006 12.5985 21.4812 12.6961 21.4434 12.7871C21.4057 12.8782 21.3504 12.9609 21.2806 13.0306Z" fill="white"/>
</svg>
